<svg width="20" height="19" viewBox="0 0 20 19" fill="none" xmlns="http://www.w3.org/2000/svg">
<path opacity="0.4" d="M2.58499 16.1736C0.05653 13.6452 0.0448458 9.54378 2.55894 7.02968L8.94147 0.647156C9.2776 0.311023 9.8232 0.313247 10.1606 0.650629C10.4981 0.988124 10.5003 1.53373 10.1642 1.86986L3.78165 8.25238C1.93859 10.0954 1.9466 13.1037 3.80075 14.9579C5.6549 16.812 8.66318 16.82 10.5062 14.977L17.1927 8.29048C18.3658 7.11735 18.3604 5.20329 17.1806 4.02345C16.0006 2.84351 14.0866 2.83806 12.9134 4.01119L6.83476 10.0899C6.33212 10.5925 6.33435 11.413 6.83997 11.9186C7.3456 12.4243 8.16612 12.4265 8.66876 11.9239L14.4435 6.14915C14.7796 5.81302 15.3252 5.81524 15.6626 6.15262C16.0001 6.49012 16.0023 7.03572 15.6662 7.37185L9.89146 13.1466C8.71834 14.3197 6.80416 14.3141 5.62433 13.1343C4.4445 11.9545 4.43893 10.0403 5.61206 8.86715L11.6907 2.78848C13.5337 0.945539 16.5421 0.953439 18.3963 2.8077C20.2505 4.66185 20.2584 7.67024 18.4154 9.51318L11.7289 16.1997C9.21484 18.7138 5.11346 18.7021 2.58499 16.1736Z" fill="#09110E"/>
</svg>
