<svg width="21" height="23" viewBox="0 0 21 23" fill="none" xmlns="http://www.w3.org/2000/svg">
<path fill-rule="evenodd" clip-rule="evenodd" d="M7.3864 1.89344C7.63832 1.64153 7.97999 1.5 8.33626 1.5H12.5229C12.8791 1.5 13.2208 1.64153 13.4727 1.89344C13.7246 2.14536 13.8661 2.48703 13.8661 2.8433V4.1864H6.99296V2.8433C6.99296 2.48703 7.13449 2.14536 7.3864 1.89344ZM5.49296 4.1864V2.8433C5.49296 2.08921 5.79252 1.366 6.32574 0.832782C6.85896 0.299561 7.58217 0 8.33626 0H12.5229C13.2769 0 14.0001 0.299561 14.5334 0.832782C15.0666 1.366 15.3661 2.08921 15.3661 2.8433V4.1864H19.8497C20.2639 4.1864 20.5997 4.52219 20.5997 4.9364C20.5997 5.35062 20.2639 5.6864 19.8497 5.6864H18.5061V19.5897C18.5061 20.3438 18.2065 21.067 17.6733 21.6002C17.1401 22.1334 16.4169 22.433 15.6628 22.433H5.19631C4.44222 22.433 3.71902 22.1334 3.1858 21.6002C2.65258 21.067 2.35301 20.3438 2.35301 19.5897V5.6864H1.01001C0.595796 5.6864 0.26001 5.35062 0.26001 4.9364C0.26001 4.52219 0.595796 4.1864 1.01001 4.1864H3.10331H5.49296ZM6.24296 5.68659H14.6161H17.0061V19.5897C17.0061 19.9459 16.8646 20.2876 16.6126 20.5395C16.3607 20.7914 16.0191 20.933 15.6628 20.933H5.19631C4.84005 20.933 4.49837 20.7914 4.24646 20.5395C3.99454 20.2876 3.85301 19.9459 3.85301 19.5897V5.68659H6.24296ZM8.33694 9.41981C8.75116 9.41981 9.08694 9.7556 9.08694 10.1698V16.4497C9.08694 16.8639 8.75116 17.1997 8.33694 17.1997C7.92273 17.1997 7.58694 16.8639 7.58694 16.4497V10.1698C7.58694 9.7556 7.92273 9.41981 8.33694 9.41981ZM13.2728 10.1698C13.2728 9.7556 12.937 9.41981 12.5228 9.41981C12.1086 9.41981 11.7728 9.7556 11.7728 10.1698V16.4497C11.7728 16.8639 12.1086 17.1997 12.5228 17.1997C12.937 17.1997 13.2728 16.8639 13.2728 16.4497V10.1698Z" fill="#FF5E5E"/>
</svg>
