<svg width="22" height="23" viewBox="0 0 22 23" fill="none" xmlns="http://www.w3.org/2000/svg">
<path d="M10.1953 4.55371H3.0434C2.50146 4.55371 1.98171 4.75106 1.5985 5.10233C1.21529 5.45361 1 5.93005 1 6.42683V19.5386C1 20.0354 1.21529 20.5119 1.5985 20.8631C1.98171 21.2144 2.50146 21.4118 3.0434 21.4118H17.3472C17.8891 21.4118 18.4089 21.2144 18.7921 20.8631C19.1753 20.5119 19.3906 20.0354 19.3906 19.5386V12.9827" stroke="#898A8D" stroke-width="2" stroke-linecap="round" stroke-linejoin="round"/>
<path d="M16.993 2.09515C17.4248 1.70658 18.0104 1.48828 18.6209 1.48828C19.2315 1.48828 19.8171 1.70658 20.2489 2.09515C20.6806 2.48373 20.9232 3.01075 20.9232 3.56027C20.9232 4.1098 20.6806 4.63682 20.2489 5.02539L9.93875 14.3045L5.59766 15.2812L6.68293 11.3742L16.993 2.09515Z" stroke="#898A8D" stroke-width="2" stroke-linecap="round" stroke-linejoin="round"/>
</svg>
