<svg width="48" height="48" viewBox="0 0 48 48" fill="none" xmlns="http://www.w3.org/2000/svg">
<g filter="url(#filter0_d_308_374)">
<circle cx="24" cy="24" r="16" fill="white"/>
</g>
<circle cx="24.2545" cy="24.0006" r="14.2545" fill="#F6690F"/>
<path d="M16.5742 20.98C17.3142 20.98 17.9609 21.1267 18.5142 21.42C19.0676 21.7133 19.4942 22.1267 19.7942 22.66C20.1009 23.1867 20.2542 23.7967 20.2542 24.49C20.2542 25.1767 20.1009 25.7867 19.7942 26.32C19.4942 26.8533 19.0642 27.2667 18.5042 27.56C17.9509 27.8533 17.3076 28 16.5742 28H13.9442V20.98H16.5742ZM16.4642 26.52C17.1109 26.52 17.6142 26.3433 17.9742 25.99C18.3342 25.6367 18.5142 25.1367 18.5142 24.49C18.5142 23.8433 18.3342 23.34 17.9742 22.98C17.6142 22.62 17.1109 22.44 16.4642 22.44H15.6542V26.52H16.4642ZM25.7798 20.98V22.35H22.9198V23.83H25.0598V25.16H22.9198V28H21.2098V20.98H25.7798ZM31.3386 23.2C31.2119 22.9667 31.0286 22.79 30.7886 22.67C30.5553 22.5433 30.2786 22.48 29.9586 22.48C29.4053 22.48 28.9619 22.6633 28.6286 23.03C28.2953 23.39 28.1286 23.8733 28.1286 24.48C28.1286 25.1267 28.3019 25.6333 28.6486 26C29.0019 26.36 29.4853 26.54 30.0986 26.54C30.5186 26.54 30.8719 26.4333 31.1586 26.22C31.4519 26.0067 31.6653 25.7 31.7986 25.3H29.6286V24.04H33.3486V25.63C33.2219 26.0567 33.0053 26.4533 32.6986 26.82C32.3986 27.1867 32.0153 27.4833 31.5486 27.71C31.0819 27.9367 30.5553 28.05 29.9686 28.05C29.2753 28.05 28.6553 27.9 28.1086 27.6C27.5686 27.2933 27.1453 26.87 26.8386 26.33C26.5386 25.79 26.3886 25.1733 26.3886 24.48C26.3886 23.7867 26.5386 23.17 26.8386 22.63C27.1453 22.0833 27.5686 21.66 28.1086 21.36C28.6486 21.0533 29.2653 20.9 29.9586 20.9C30.7986 20.9 31.5053 21.1033 32.0786 21.51C32.6586 21.9167 33.0419 22.48 33.2286 23.2H31.3386Z" fill="white"/>
<defs>
<filter id="filter0_d_308_374" x="0" y="0" width="48" height="48" filterUnits="userSpaceOnUse" color-interpolation-filters="sRGB">
<feFlood flood-opacity="0" result="BackgroundImageFix"/>
<feColorMatrix in="SourceAlpha" type="matrix" values="0 0 0 0 0 0 0 0 0 0 0 0 0 0 0 0 0 0 127 0" result="hardAlpha"/>
<feOffset/>
<feGaussianBlur stdDeviation="4"/>
<feColorMatrix type="matrix" values="0 0 0 0 0 0 0 0 0 0 0 0 0 0 0 0 0 0 0.25 0"/>
<feBlend mode="normal" in2="BackgroundImageFix" result="effect1_dropShadow_308_374"/>
<feBlend mode="normal" in="SourceGraphic" in2="effect1_dropShadow_308_374" result="shape"/>
</filter>
</defs>
</svg>
