<svg width="20" height="18" viewBox="0 0 20 18" fill="none" xmlns="http://www.w3.org/2000/svg">
<path d="M6.83994 4.27734C5.32413 4.27734 4.0918 5.50968 4.0918 7.02549C4.0918 8.5413 5.32413 9.77363 6.83994 9.77363C8.35575 9.77363 9.58809 8.5413 9.58809 7.02549C9.58809 5.50968 8.35575 4.27734 6.83994 4.27734ZM6.83994 8.20664C6.19031 8.20664 5.66273 7.67906 5.66273 7.02943C5.66273 6.37979 6.19031 5.85221 6.83994 5.85221C7.48958 5.85221 8.01716 6.37979 8.01716 7.02943C8.02109 7.67512 7.48958 8.20664 6.83994 8.20664Z" fill="#9DA09F"/>
<path d="M16.6635 0.347656H2.91099C1.39518 0.347656 0.162842 1.57999 0.162842 3.0958V14.8798C0.162842 16.3995 1.39518 17.6318 2.91099 17.6318H16.6596C18.1754 17.6318 19.4077 16.3995 19.4077 14.8837V3.0958C19.4117 1.57999 18.1793 0.347656 16.6635 0.347656ZM17.7305 15.3798C17.5376 15.7932 17.1163 16.0609 16.6596 16.0609H7.54897L12.2106 10.3599C12.435 10.1355 12.7303 10.0134 13.0453 10.0134C13.3602 10.0134 13.6555 10.1355 13.8799 10.3599L13.8957 10.3756L17.7817 15.2695L17.7305 15.3798ZM17.8407 13.2222L14.9745 9.23779C14.4548 8.72596 13.7697 8.44248 13.0413 8.44248C12.309 8.44248 11.62 8.72595 11.1042 9.24172L5.27723 16.0609H2.91492C2.26529 16.0609 1.73771 15.5333 1.73771 14.8837V3.0958C1.73771 2.44617 2.26529 1.91859 2.91492 1.91859H16.6635C17.3132 1.91859 17.8407 2.44617 17.8407 3.0958V13.2222Z" fill="#9DA09F"/>
</svg>
