<svg width="48" height="48" viewBox="0 0 48 48" fill="none" xmlns="http://www.w3.org/2000/svg">
<g filter="url(#filter0_d_308_358)">
<circle cx="24" cy="24" r="16" fill="white"/>
</g>
<circle cx="24.2545" cy="24.0006" r="14.2545" fill="#4CD964"/>
<path d="M19.7602 20.98V25.76C19.7602 26.5 19.5502 27.07 19.1302 27.47C18.7169 27.87 18.1569 28.07 17.4502 28.07C16.7102 28.07 16.1169 27.86 15.6702 27.44C15.2236 27.02 15.0002 26.4233 15.0002 25.65H16.7002C16.7002 25.9433 16.7602 26.1667 16.8802 26.32C17.0002 26.4667 17.1736 26.54 17.4002 26.54C17.6069 26.54 17.7669 26.4733 17.8802 26.34C17.9936 26.2067 18.0502 26.0133 18.0502 25.76V20.98H19.7602ZM25.2115 28L22.8515 24.9V28H21.1415V20.98H22.8515V24.06L25.1915 20.98H27.2015L24.4815 24.42L27.3015 28H25.2115ZM29.8241 26.68H32.0641V28H28.1141V20.98H29.8241V26.68Z" fill="white"/>
<defs>
<filter id="filter0_d_308_358" x="0" y="0" width="48" height="48" filterUnits="userSpaceOnUse" color-interpolation-filters="sRGB">
<feFlood flood-opacity="0" result="BackgroundImageFix"/>
<feColorMatrix in="SourceAlpha" type="matrix" values="0 0 0 0 0 0 0 0 0 0 0 0 0 0 0 0 0 0 127 0" result="hardAlpha"/>
<feOffset/>
<feGaussianBlur stdDeviation="4"/>
<feColorMatrix type="matrix" values="0 0 0 0 0 0 0 0 0 0 0 0 0 0 0 0 0 0 0.25 0"/>
<feBlend mode="normal" in2="BackgroundImageFix" result="effect1_dropShadow_308_358"/>
<feBlend mode="normal" in="SourceGraphic" in2="effect1_dropShadow_308_358" result="shape"/>
</filter>
</defs>
</svg>
