<svg width="11" height="11" viewBox="0 0 11 11" fill="none" xmlns="http://www.w3.org/2000/svg">
<g clip-path="url(#clip0_466_842)">
<path fill-rule="evenodd" clip-rule="evenodd" d="M5.62665 10.1493C6.70342 9.26743 8.71399 7.31432 8.71399 5.02612C8.71399 2.95506 7.03506 1.27612 4.96399 1.27612C2.89292 1.27612 1.21399 2.95506 1.21399 5.02612C1.21399 7.31432 3.22456 9.26743 4.30133 10.1493C4.69172 10.4691 5.23626 10.4691 5.62665 10.1493ZM4.96399 5.85946C5.65435 5.85946 6.21399 5.29981 6.21399 4.60946C6.21399 3.9191 5.65435 3.35946 4.96399 3.35946C4.27363 3.35946 3.71399 3.9191 3.71399 4.60946C3.71399 5.29981 4.27363 5.85946 4.96399 5.85946Z" fill="white"/>
</g>
<defs>
<clipPath id="clip0_466_842">
<rect width="10" height="10" fill="white" transform="translate(0.797363 0.859375)"/>
</clipPath>
</defs>
</svg>
