<svg width="88" height="26" viewBox="0 0 88 26" fill="none" xmlns="http://www.w3.org/2000/svg">
<path d="M29.51 16H30.5V14.229H31.6V13.36H30.5V8.124H29.301L25.44 13.47V14.229H29.51V16ZM26.595 13.36L29.554 9.169V13.36H26.595ZM32.6 11.941C32.6 14.251 33.172 16 35.372 16C37.561 16 38.133 14.251 38.133 11.941C38.133 9.664 37.561 7.926 35.372 7.926C33.172 7.926 32.6 9.664 32.6 11.941ZM37.143 11.941C37.143 13.657 36.934 15.087 35.372 15.087C33.799 15.087 33.59 13.657 33.59 11.941C33.59 10.291 33.799 8.839 35.372 8.839C36.934 8.839 37.143 10.291 37.143 11.941ZM39.5072 11.941C39.5072 14.251 40.0792 16 42.2792 16C44.4682 16 45.0402 14.251 45.0402 11.941C45.0402 9.664 44.4682 7.926 42.2792 7.926C40.0792 7.926 39.5072 9.664 39.5072 11.941ZM44.0502 11.941C44.0502 13.657 43.8412 15.087 42.2792 15.087C40.7062 15.087 40.4972 13.657 40.4972 11.941C40.4972 10.291 40.7062 8.839 42.2792 8.839C43.8412 8.839 44.0502 10.291 44.0502 11.941Z" fill="#34A853"/>
<path d="M4.155 19.305H5.115V18.09C7.305 17.94 8.505 16.515 8.505 14.985C8.505 12.765 6.675 12.36 5.115 11.955V9.12C5.7 9.3 6.06 9.75 6.12 10.335H8.385C8.25 8.55 6.99 7.545 5.115 7.395V6.18H4.155V7.395C2.205 7.545 0.795 8.7 0.795 10.47C0.795 12.69 2.61 13.125 4.155 13.515V16.38C3.465 16.23 3.105 15.765 3.045 15.075H0.795C0.84 16.875 2.22 17.91 4.155 18.075V19.305ZM6.33 15.075C6.33 15.75 5.88 16.275 5.115 16.41V13.785C5.82 14.025 6.33 14.37 6.33 15.075ZM2.985 10.365C2.985 9.6 3.465 9.18 4.155 9.075V11.67C3.465 11.43 2.985 11.07 2.985 10.365Z" fill="#43B877"/>
</svg>
