<svg width="111" height="111" viewBox="0 0 111 111" fill="none" xmlns="http://www.w3.org/2000/svg">
<circle cx="55.5" cy="55.5" r="52.5" fill="url(#paint0_linear_442_241)" stroke="white" stroke-width="6"/>
<path d="M72.8777 46.536C72.8777 49.1387 72.2804 51.528 71.0857 53.704C69.891 55.8373 68.0564 57.5653 65.5817 58.888C63.107 60.2107 60.035 60.872 56.3657 60.872H49.5817V77H38.6377V32.072H56.3657C59.9497 32.072 62.979 32.6907 65.4537 33.928C67.9284 35.1653 69.7844 36.872 71.0217 39.048C72.259 41.224 72.8777 43.72 72.8777 46.536ZM55.5337 52.168C57.6244 52.168 59.1817 51.6773 60.2057 50.696C61.2297 49.7147 61.7417 48.328 61.7417 46.536C61.7417 44.744 61.2297 43.3573 60.2057 42.376C59.1817 41.3947 57.6244 40.904 55.5337 40.904H49.5817V52.168H55.5337Z" fill="white"/>
<defs>
<linearGradient id="paint0_linear_442_241" x1="55.5" y1="0" x2="55.5" y2="111" gradientUnits="userSpaceOnUse">
<stop stop-color="#DABDFF"/>
<stop offset="1" stop-color="#9678FB"/>
</linearGradient>
</defs>
</svg>
