<svg width="31" height="31" viewBox="0 0 31 31" fill="none" xmlns="http://www.w3.org/2000/svg">
<path d="M15.2031 29.7314C23.2285 29.7314 29.7344 23.2256 29.7344 15.2002C29.7344 7.17481 23.2285 0.668945 15.2031 0.668945C7.17774 0.668945 0.671875 7.17481 0.671875 15.2002C0.671875 23.2256 7.17774 29.7314 15.2031 29.7314Z" fill="#EA4C89"/>
<path fill-rule="evenodd" clip-rule="evenodd" d="M15.2031 0.200195C6.92222 0.200195 0.203125 6.91929 0.203125 15.2002C0.203125 23.4811 6.92222 30.2002 15.2031 30.2002C23.4678 30.2002 30.2031 23.4811 30.2031 15.2002C30.2031 6.91929 23.4678 0.200195 15.2031 0.200195ZM25.1109 7.11451C26.9005 9.29455 27.9743 12.0765 28.0068 15.0863C27.5838 15.005 23.3538 14.1427 19.0914 14.6796C18.9938 14.4681 18.9124 14.2403 18.8148 14.0126C18.5545 13.3944 18.2617 12.7599 17.9688 12.1579C22.6868 10.2382 24.8343 7.47243 25.1109 7.11451ZM15.2031 2.41278C18.4569 2.41278 21.4341 3.63295 23.6956 5.63404C23.4677 5.95942 21.5317 8.54619 16.9764 10.2544C14.8777 6.39867 12.5513 3.2425 12.1934 2.75442C13.1532 2.52666 14.1619 2.41278 15.2031 2.41278ZM9.75306 3.61668C10.0947 4.07221 12.3723 7.24466 14.5036 11.019C8.51658 12.6134 3.22916 12.5809 2.65974 12.5809C3.48946 8.61126 6.17384 5.30865 9.75306 3.61668ZM2.38317 15.2165C2.38317 15.0863 2.38317 14.9562 2.38317 14.826C2.93631 14.8423 9.15107 14.9236 15.5448 13.0039C15.919 13.7197 16.2606 14.4518 16.586 15.1839C16.4233 15.2327 16.2443 15.2816 16.0817 15.3303C9.47644 17.4615 5.96235 23.2859 5.6695 23.7739C3.63588 21.5126 2.38317 18.5028 2.38317 15.2165ZM15.2031 28.0201C12.2421 28.0201 9.50898 27.0115 7.34521 25.3195C7.57297 24.8477 10.176 19.8369 17.3994 17.3152C17.4319 17.2989 17.4482 17.2989 17.4808 17.2827C19.2866 21.9518 20.0188 25.8726 20.214 26.9952C18.6684 27.6622 16.9764 28.0201 15.2031 28.0201ZM22.3452 25.8239C22.2151 25.0429 21.5317 21.3011 19.856 16.6969C23.8745 16.0624 27.3886 17.1037 27.8279 17.2501C27.2747 20.813 25.2248 23.8878 22.3452 25.8239Z" fill="#C32361"/>
</svg>
