<svg width="48" height="48" viewBox="0 0 48 48" fill="none" xmlns="http://www.w3.org/2000/svg">
<g filter="url(#filter0_d_308_353)">
<circle cx="24" cy="24" r="16" fill="white"/>
</g>
<circle cx="24.2545" cy="24.0006" r="14.2545" fill="url(#paint0_linear_308_353)"/>
<path d="M28.4898 22.336C28.4898 22.9053 28.3592 23.428 28.0978 23.904C27.8365 24.3707 27.4352 24.7487 26.8938 25.038C26.3525 25.3273 25.6805 25.472 24.8778 25.472H23.3938V29H20.9998V19.172H24.8778C25.6618 19.172 26.3245 19.3073 26.8658 19.578C27.4072 19.8487 27.8132 20.222 28.0838 20.698C28.3545 21.174 28.4898 21.72 28.4898 22.336ZM24.6958 23.568C25.1532 23.568 25.4938 23.4607 25.7178 23.246C25.9418 23.0313 26.0538 22.728 26.0538 22.336C26.0538 21.944 25.9418 21.6407 25.7178 21.426C25.4938 21.2113 25.1532 21.104 24.6958 21.104H23.3938V23.568H24.6958Z" fill="white"/>
<defs>
<filter id="filter0_d_308_353" x="0" y="0" width="48" height="48" filterUnits="userSpaceOnUse" color-interpolation-filters="sRGB">
<feFlood flood-opacity="0" result="BackgroundImageFix"/>
<feColorMatrix in="SourceAlpha" type="matrix" values="0 0 0 0 0 0 0 0 0 0 0 0 0 0 0 0 0 0 127 0" result="hardAlpha"/>
<feOffset/>
<feGaussianBlur stdDeviation="4"/>
<feColorMatrix type="matrix" values="0 0 0 0 0 0 0 0 0 0 0 0 0 0 0 0 0 0 0.25 0"/>
<feBlend mode="normal" in2="BackgroundImageFix" result="effect1_dropShadow_308_353"/>
<feBlend mode="normal" in="SourceGraphic" in2="effect1_dropShadow_308_353" result="shape"/>
</filter>
<linearGradient id="paint0_linear_308_353" x1="24.2545" y1="9.74609" x2="24.2545" y2="38.2552" gradientUnits="userSpaceOnUse">
<stop stop-color="#DABDFF"/>
<stop offset="1" stop-color="#9678FB"/>
</linearGradient>
</defs>
</svg>
