<svg width="25" height="25" viewBox="0 0 25 25" fill="none" xmlns="http://www.w3.org/2000/svg">
<path d="M17.0155 16.0655L16.2273 15.4501L17.0155 16.0655ZM7.98457 16.0655L8.77278 15.4501L7.98457 16.0655ZM6.47385 17.2451L5.68564 17.8605L6.47385 17.2451ZM18.5262 17.2451L19.3144 17.8605L18.5262 17.2451ZM12.5 2C18.299 2 23 6.70101 23 12.5H25C25 5.59644 19.4036 0 12.5 0V2ZM23 12.5C23 18.299 18.299 23 12.5 23V25C19.4036 25 25 19.4036 25 12.5H23ZM12.5 23C6.70101 23 2 18.299 2 12.5H0C0 19.4036 5.59644 25 12.5 25V23ZM2 12.5C2 6.70101 6.70101 2 12.5 2V0C5.59644 0 0 5.59644 0 12.5H2ZM16.2273 15.4501C15.2764 16.668 14.0917 17.2454 12.5 17.2454V19.2454C14.6955 19.2454 16.4665 18.3937 17.8037 16.681L16.2273 15.4501ZM12.5 17.2454C10.9084 17.2454 9.72367 16.668 8.77278 15.4501L7.19637 16.681C8.53363 18.3937 10.3046 19.2454 12.5 19.2454V17.2454ZM8.77278 15.4501C8.10717 14.5976 6.87652 14.4461 6.02403 15.1117L7.25485 16.6882C7.23671 16.7023 7.21053 16.6991 7.19637 16.681L8.77278 15.4501ZM6.02403 15.1117C5.17154 15.7774 5.02004 17.008 5.68564 17.8605L7.26205 16.6297C7.27621 16.6478 7.27299 16.674 7.25485 16.6882L6.02403 15.1117ZM5.68564 17.8605C7.38699 20.0395 9.7157 21.162 12.5 21.162V19.162C10.3219 19.162 8.57846 18.3157 7.26205 16.6297L5.68564 17.8605ZM12.5 21.162C15.2844 21.162 17.6131 20.0395 19.3144 17.8605L17.738 16.6297C16.4216 18.3157 14.6782 19.162 12.5 19.162V21.162ZM19.3144 17.8605C19.98 17.008 19.8285 15.7774 18.9761 15.1117L17.7452 16.6882C17.7271 16.674 17.7239 16.6478 17.738 16.6297L19.3144 17.8605ZM18.9761 15.1117C18.1236 14.4461 16.8929 14.5976 16.2273 15.4501L17.8037 16.681C17.7896 16.6991 17.7634 16.7023 17.7452 16.6882L18.9761 15.1117ZM8.66667 7.66667C7.88438 7.66667 7.25241 8.09177 6.8502 8.62805C6.44823 9.16401 6.22917 9.85861 6.22917 10.5833H8.22917C8.22917 10.2495 8.3319 9.98578 8.4502 9.82804C8.56827 9.67062 8.65504 9.66667 8.66667 9.66667V7.66667ZM6.22917 10.5833C6.22917 11.3081 6.44823 12.0027 6.8502 12.5386C7.25241 13.0749 7.88438 13.5 8.66667 13.5V11.5C8.65504 11.5 8.56827 11.496 8.4502 11.3386C8.3319 11.1809 8.22917 10.9172 8.22917 10.5833H6.22917ZM8.66667 13.5C9.44895 13.5 10.0809 13.0749 10.4831 12.5386C10.8851 12.0027 11.1042 11.3081 11.1042 10.5833H9.10417C9.10417 10.9172 9.00143 11.1809 8.88313 11.3386C8.76507 11.496 8.67829 11.5 8.66667 11.5V13.5ZM11.1042 10.5833C11.1042 9.85861 10.8851 9.16401 10.4831 8.62805C10.0809 8.09177 9.44895 7.66667 8.66667 7.66667V9.66667C8.67829 9.66667 8.76507 9.67062 8.88313 9.82804C9.00143 9.98578 9.10417 10.2495 9.10417 10.5833H11.1042ZM16.3333 7.66667C15.5511 7.66667 14.9191 8.09177 14.5169 8.62805C14.1149 9.16401 13.8958 9.85861 13.8958 10.5833H15.8958C15.8958 10.2495 15.9986 9.98578 16.1169 9.82804C16.2349 9.67062 16.3217 9.66667 16.3333 9.66667V7.66667ZM13.8958 10.5833C13.8958 11.3081 14.1149 12.0027 14.5169 12.5386C14.9191 13.0749 15.5511 13.5 16.3333 13.5V11.5C16.3217 11.5 16.2349 11.496 16.1169 11.3386C15.9986 11.1809 15.8958 10.9172 15.8958 10.5833H13.8958ZM16.3333 13.5C17.1156 13.5 17.7476 13.0749 18.1498 12.5386C18.5518 12.0027 18.7708 11.3081 18.7708 10.5833H16.7708C16.7708 10.9172 16.6681 11.1809 16.5498 11.3386C16.4317 11.496 16.345 11.5 16.3333 11.5V13.5ZM18.7708 10.5833C18.7708 9.85861 18.5518 9.16401 18.1498 8.62805C17.7476 8.09177 17.1156 7.66667 16.3333 7.66667V9.66667C16.345 9.66667 16.4317 9.67062 16.5498 9.82804C16.6681 9.98578 16.7708 10.2495 16.7708 10.5833H18.7708Z" fill="#C4C4C4"/>
</svg>
