<svg width="48" height="48" viewBox="0 0 48 48" fill="none" xmlns="http://www.w3.org/2000/svg">
<g filter="url(#filter0_d_308_370)">
<circle cx="24" cy="24" r="16" fill="white"/>
</g>
<circle cx="24.2545" cy="24.0006" r="14.2545" fill="#F79E1B"/>
<path d="M18.5128 28L17.0828 25.85L15.8228 28H13.8828L16.1328 24.43L13.8328 20.98H15.8228L17.2328 23.1L18.4728 20.98H20.4128L18.1828 24.52L20.5028 28H18.5128ZM27.3812 20.98L24.9512 25.68V28H23.2412V25.68L20.8112 20.98H22.7512L24.1112 23.92L25.4612 20.98H27.3812ZM29.8902 26.6H32.9102V28H27.9502V26.7L30.9502 22.38H27.9502V20.98H32.9102V22.28L29.8902 26.6Z" fill="white"/>
<defs>
<filter id="filter0_d_308_370" x="0" y="0" width="48" height="48" filterUnits="userSpaceOnUse" color-interpolation-filters="sRGB">
<feFlood flood-opacity="0" result="BackgroundImageFix"/>
<feColorMatrix in="SourceAlpha" type="matrix" values="0 0 0 0 0 0 0 0 0 0 0 0 0 0 0 0 0 0 127 0" result="hardAlpha"/>
<feOffset/>
<feGaussianBlur stdDeviation="4"/>
<feColorMatrix type="matrix" values="0 0 0 0 0 0 0 0 0 0 0 0 0 0 0 0 0 0 0.25 0"/>
<feBlend mode="normal" in2="BackgroundImageFix" result="effect1_dropShadow_308_370"/>
<feBlend mode="normal" in="SourceGraphic" in2="effect1_dropShadow_308_370" result="shape"/>
</filter>
</defs>
</svg>
