<svg width="50" height="49" viewBox="0 0 50 49" fill="none" xmlns="http://www.w3.org/2000/svg">
<rect x="0.797363" y="0.612061" width="48.377" height="48.377" rx="10.555" fill="white"/>
<g clip-path="url(#clip0_466_772)">
<path d="M39.4028 17.7155C39.2332 17.0773 38.8989 16.4948 38.4334 16.0263C37.968 15.5579 37.3876 15.2199 36.7505 15.0462C34.405 14.4155 25.03 14.4155 25.03 14.4155C25.03 14.4155 15.655 14.4155 13.3096 15.0462C12.6724 15.2199 12.0921 15.5579 11.6266 16.0263C11.1612 16.4948 10.8269 17.0773 10.6573 17.7155C10.03 20.0712 10.03 24.9837 10.03 24.9837C10.03 24.9837 10.03 29.8962 10.6573 32.2519C10.8269 32.8901 11.1612 33.4726 11.6266 33.9411C12.0921 34.4095 12.6724 34.7475 13.3096 34.9212C15.655 35.5519 25.03 35.5519 25.03 35.5519C25.03 35.5519 34.405 35.5519 36.7505 34.9212C37.3876 34.7475 37.968 34.4095 38.4334 33.9411C38.8989 33.4726 39.2332 32.8901 39.4028 32.2519C40.03 29.8962 40.03 24.9837 40.03 24.9837C40.03 24.9837 40.03 20.0712 39.4028 17.7155Z" fill="#FF0302"/>
<path d="M21.9619 29.4445V20.5229L29.8028 24.9837L21.9619 29.4445Z" fill="#FEFEFE"/>
</g>
<defs>
<clipPath id="clip0_466_772">
<rect width="30" height="30" fill="white" transform="translate(10.0002 9.98364)"/>
</clipPath>
</defs>
</svg>
